<svg width="37" height="42" viewBox="0 0 37 42" fill="none" xmlns="http://www.w3.org/2000/svg">
<path d="M28.0532 14.2175C28.0723 14.0071 28.0915 13.7776 28.0915 13.548C28.0915 10.4301 25.5638 7.92437 22.4617 7.92437C21.9255 7.92437 21.4277 8.00088 20.9298 8.13477C20.3745 4.11788 16.9277 1 12.734 1C8.15745 1 4.4617 4.69172 4.4617 9.26333V9.32071C1.95319 9.60764 0 11.75 0 14.3323C0 17.125 2.25957 19.3821 5.05532 19.3821H27.7468V19.363C27.8234 19.363 27.9 19.3821 27.9574 19.3821C29.3745 19.3821 30.5426 18.2344 30.5426 16.7998C30.5426 15.4034 29.4319 14.2749 28.0532 14.2175Z" fill="#C5E1F9"/>
<path d="M13.5192 42.3358V35.8705M23.8596 30.2086V31.911C23.8596 33.9959 21.983 35.3923 19.8958 35.3923H9.47874C7.39151 35.3923 5.68725 33.9959 5.68725 31.911V25.4457L2.52768 23.992L7.583 13.089C7.583 13.089 8.34896 11.2527 8.483 10.8892C10.4936 5.4951 15.683 1.65036 21.7915 1.65036C29.6426 1.65036 36 8.00088 36 15.8434C36 20.568 33.4915 24.7571 29.9298 27.3394L29.9298 42.3358L23.8596 30.2086Z" stroke="#0561FC" stroke-width="1.88425"/>
</svg>
