<svg width="46" height="35" viewBox="0 0 46 35" fill="none" xmlns="http://www.w3.org/2000/svg">
<path d="M28.7097 10.5066H32.2958V36.574H0.754974L0.754974 10.5066H3.62804" fill="#EAF4FE"/>
<path d="M11.5133 29.4018H12.9393M5.76712 14.3444H15.8124H5.76712ZM11.5133 17.9305H12.9393H11.5133ZM14.3863 17.9305H15.8124H14.3863ZM17.2384 17.9305H18.6854H17.2384ZM20.1115 17.9305H21.5375H20.1115ZM22.9846 17.9305H24.4106H22.9846ZM5.76712 20.7825H7.21414H5.76712ZM8.64019 20.7825H10.0662H8.64019ZM11.5133 20.7825H12.9393H11.5133ZM14.3863 20.7825H15.8124H14.3863ZM17.2384 20.7825H18.6854H17.2384ZM20.1115 20.7825H21.5375H20.1115ZM22.9846 20.7825H24.4106H22.9846ZM5.76712 23.6556H7.21414H5.76712ZM8.64019 23.6556H10.0662H8.64019ZM11.5133 23.6556H12.9393H11.5133ZM14.3863 23.6556H15.8124H14.3863ZM17.2384 23.6556H18.6854H17.2384ZM20.1115 23.6556H21.5375H20.1115ZM22.9846 23.6556H24.4106H22.9846ZM5.76712 26.5287H7.21414H5.76712ZM8.64019 26.5287H10.0662H8.64019ZM11.5133 26.5287H12.9393H11.5133ZM14.3863 26.5287H15.8124H14.3863ZM17.2384 26.5287H18.6854H17.2384ZM20.1115 26.5287H21.5375H20.1115ZM22.9846 26.5287H24.4106H22.9846ZM5.76712 29.4018H7.21414H5.76712ZM8.64019 29.4018H10.0662H8.64019Z" stroke="#0561FC" stroke-width="1.73581"/>
<path d="M28.7097 2.87305L32.2958 2.87305V10.0452L0.754974 10.0452L0.754974 2.87305H3.62804" fill="#9AC7F7"/>
<path d="M5.76712 5.74614V0M10.0662 5.74614V0M14.3863 5.74614V0M18.6854 5.74614V0M22.9846 5.74614V0M27.2837 5.74614V0M29.4437 22.5861L31.2263 24.3687L35.5254 20.0695M38.042 21.5166H45.9272M38.042 24.3687H45.9272" stroke="#0561FC" stroke-width="1.73581"/>
<path d="M27.2837 26.5287V17.9305H35.8819M38.042 32.9878H45.9272M38.042 35.8399H45.9272M29.4437 34.0574L31.2263 35.8399L35.5254 31.5408L29.4437 34.0574Z" stroke="#0561FC" stroke-width="1.73581"/>
<path d="M27.2837 38V29.4017H35.8819" stroke="#0561FC" stroke-width="1.73581"/>
</svg>
