<svg width="44" height="39" viewBox="0 0 44 39" fill="none" xmlns="http://www.w3.org/2000/svg">
<path d="M10.7289 14.7559L25.427 14.6849L25.495 28.7605L10.7969 28.8315L10.7289 14.7559Z" fill="#C5E1F9"/>
<path d="M25.4405 19.3787L10.7224 14.7605L25.4204 14.6802L25.4405 19.3787Z" fill="#B6D9EF"/>
<path d="M35.7859 28.7234L25.4852 28.7732L25.4172 14.6976L35.7179 14.6478L35.7859 28.7234Z" fill="#9AC7F7"/>
<path d="M9.54651 10.0806L25.61 10.003L25.6327 14.7016L9.5692 14.7792L9.54651 10.0806Z" fill="#C5E1F9"/>
<path d="M36.8763 14.6412L25.6319 14.6955L25.6092 9.99695L36.8536 9.94264L36.8763 14.6412Z" fill="#9AC7F7"/>
<path d="M13.3351 2.55103L21.0858 2.51359L21.1216 9.94294L13.371 9.98038L13.3351 2.55103Z" fill="#C5E1F9"/>
<path d="M21.0836 4.98187L13.3329 2.53219L21.0635 2.51212L21.0836 4.98187Z" fill="#B6D9EF"/>
<path d="M26.5333 9.89871L21.1119 9.9249L21.076 2.49555L26.4974 2.46936L26.5333 9.89871Z" fill="#9AC7F7"/>
<path d="M12.7045 0.0626831L21.1579 0.0218532L21.1698 2.49161L12.7164 2.53244L12.7045 0.0626831Z" fill="#C5E1F9"/>
<path d="M27.112 2.46976L21.1886 2.49837L21.1767 0.0286095L27.1001 -4.76837e-07L27.112 2.46976Z" fill="#9AC7F7"/>
<path d="M0 10.2627H5.50174L8.91522 29.4786L40.5 29.4786" stroke="#0561FC" stroke-width="1.07263"/>
<path d="M6.18445 15.0617L42.5682 15.0617L39.8173 29.4786M40.5 34.2776H9.27667C7.95143 34.2776 6.86715 33.1933 6.86715 31.8681C6.86715 30.5428 7.95143 29.4586 9.27667 29.4586H12.3689" stroke="#0561FC" stroke-width="1.07263"/>
<path d="M12.3487 41.1447C13.491 41.1447 14.4169 40.2188 14.4169 39.0766C14.4169 37.9343 13.491 37.0084 12.3487 37.0084C11.2065 37.0084 10.2806 37.9343 10.2806 39.0766C10.2806 40.2188 11.2065 41.1447 12.3487 41.1447Z" stroke="#0561FC" stroke-width="1.07263"/>
<path d="M37.7491 41.1447C38.8914 41.1447 39.8173 40.2188 39.8173 39.0766C39.8173 37.9343 38.8914 37.0084 37.7491 37.0084C36.6069 37.0084 35.681 37.9343 35.681 39.0766C35.681 40.2188 36.6069 41.1447 37.7491 41.1447Z" stroke="#0561FC" stroke-width="1.07263"/>
</svg>
